<svg version="1.1" id="Layer_1" xmlns="http://www.w3.org/2000/svg" xmlns:xlink="http://www.w3.org/1999/xlink" x="0px" y="0px"
	 width="100%" viewBox="0 0 354 66" enable-background="new 0 0 354 66" xml:space="preserve">
<path fill="#F3EA5F" opacity="1.000000" stroke="none" 
	d="
M77.000000,67.000000 
	C76.250000,67.000000 75.500000,67.000000 74.378120,66.590073 
	C69.844490,61.882442 64.661591,64.734581 59.504059,64.105438 
	C46.359924,64.088387 33.677704,64.140793 20.747452,64.114532 
	C20.334345,64.089180 20.169268,64.142479 19.676056,64.134979 
	C18.906834,64.115585 18.465746,64.157005 17.574524,64.106949 
	C15.297095,64.008034 13.469807,63.996380 11.642506,63.993889 
	C4.921929,63.984726 2.998367,62.056293 2.961935,55.179722 
	C2.920869,47.428623 2.310924,39.617599 3.058231,31.940680 
	C4.064275,21.605812 -0.876777,10.446937 7.000000,1.000000 
	C120.688683,1.000000 234.377365,1.000000 348.238098,1.290712 
	C350.295898,4.060167 352.181641,6.538909 353.686035,9.127843 
	C353.289886,10.815491 353.275146,12.392946 353.127380,14.453056 
	C353.641327,17.648518 354.288361,20.361324 354.534271,23.395176 
	C353.845184,25.467409 353.557190,27.218599 353.183838,29.407612 
	C353.134796,31.902662 353.171112,33.959888 353.104492,36.337250 
	C353.057159,37.097572 353.112762,37.537758 353.085815,38.404388 
	C353.096283,40.265980 353.189331,41.701122 353.209930,43.535934 
	C353.187408,45.278240 353.237335,46.620876 353.270935,48.347565 
	C353.265381,49.500175 353.276184,50.268723 353.159241,51.464176 
	C353.076172,56.371704 353.870453,61.094902 348.823181,64.051056 
	C348.355377,64.130051 348.171173,64.177521 347.531158,64.122238 
	C343.247040,64.013611 339.402191,63.813969 335.602203,64.139046 
	C334.660095,64.219643 333.863464,66.000626 333.000000,67.000000 
	C332.250000,67.000000 331.500000,67.000000 330.378113,66.590073 
	C325.843872,61.882763 320.661041,64.733711 315.502991,64.106461 
	C302.360199,64.089310 289.679321,64.141357 276.749237,64.114182 
	C276.334167,64.088615 276.168274,64.142265 275.674805,64.135643 
	C274.906921,64.116425 274.466583,64.157478 273.564026,64.106186 
	C264.405365,64.070602 255.708954,64.127373 246.548889,64.104454 
	C238.721008,64.090424 231.356812,64.156082 223.532532,64.129112 
	C216.045792,64.089432 209.019104,64.142380 201.552048,64.105751 
	C198.414627,64.066841 195.717606,64.117508 192.555771,64.099060 
	C186.398499,64.075974 180.706024,64.122002 174.549927,64.088333 
	C156.732132,64.070419 139.377975,64.132210 121.558777,64.118317 
	C111.393478,64.094444 101.693237,64.146271 91.534187,64.109528 
	C87.247070,64.014603 83.402206,63.814453 79.602165,64.139061 
	C78.660187,64.219528 77.863480,66.000626 77.000000,67.000000 
M144.815323,23.483881 
	C140.576859,31.998095 136.338379,40.512310 132.177490,48.870674 
	C135.463684,48.611912 139.829865,48.268108 144.227188,47.921852 
	C142.958267,41.412663 147.251083,39.247711 157.110931,41.619030 
	C156.673584,44.204239 156.228821,46.833317 155.743057,49.704716 
	C159.095490,49.429424 162.511490,49.148914 166.052994,48.858097 
	C160.831985,43.688038 157.013840,25.376240 159.436188,17.657421 
	C153.940063,17.955236 148.443924,18.253052 142.764648,18.560791 
	C143.545029,20.136490 144.193481,21.445808 144.815323,23.483881 
M189.740036,28.580015 
	C190.422104,23.815573 191.104172,19.051132 191.815430,14.082806 
	C189.877045,14.082806 186.718994,14.082806 183.980652,14.082806 
	C184.474426,18.992115 184.948166,23.702137 185.478516,28.974958 
	C183.915970,28.380295 183.163147,28.088318 182.406464,27.806696 
	C177.121292,25.839642 170.167236,28.451372 167.348663,33.460041 
	C164.947693,37.726616 166.693390,46.033009 170.728714,49.543106 
	C174.418716,52.752819 177.540314,52.112488 183.778625,46.888966 
	C184.019531,46.687252 184.374054,46.621227 184.930603,46.382690 
	C185.314941,47.456486 185.433029,48.756622 186.139297,49.491329 
	C186.869888,50.251320 188.368820,51.030918 189.167755,50.753593 
	C189.965591,50.476650 190.810120,48.883930 190.776062,47.897659 
	C190.564789,41.779785 190.111893,35.670254 189.740036,28.580015 
M213.046555,18.739872 
	C213.312134,22.080816 213.577713,25.421762 213.866623,29.056385 
	C206.427841,26.069185 199.688751,27.560545 196.369781,32.510860 
	C193.619202,36.613361 194.531952,44.817848 198.450684,48.739090 
	C199.659149,49.948334 201.774628,51.454674 203.071289,51.143494 
	C206.758881,50.258522 210.238358,48.506378 213.754288,47.113575 
	C215.130615,52.062832 215.506134,52.230083 219.195633,49.581688 
	C217.862915,37.486176 215.912079,25.735943 221.059402,14.217649 
	C218.151474,14.217649 215.210205,14.217649 212.214798,14.217649 
	C212.503006,15.606528 212.737656,16.737242 213.046555,18.739872 
z"/>
<path fill="#030303" opacity="1.000000" stroke="none" 
	d="
M20.004190,64.195786 
	C20.169268,64.142479 20.334345,64.089180 20.745737,64.465393 
	C20.994701,65.596611 20.997351,66.298302 21.000000,67.000000 
	C14.369685,67.000000 7.739370,67.000000 1.054528,67.000000 
	C1.054528,45.000092 1.054528,23.000063 1.054528,1.000000 
	C2.685910,1.000000 4.343484,1.000000 6.500528,1.000000 
	C-0.876777,10.446937 4.064275,21.605812 3.058231,31.940680 
	C2.310924,39.617599 2.920869,47.428623 2.961935,55.179722 
	C2.998367,62.056293 4.921929,63.984726 11.642506,63.993889 
	C13.469807,63.996380 15.297095,64.008034 17.697571,64.324692 
	C18.848564,64.487862 19.426378,64.341827 20.004190,64.195786 
z"/>
<path fill="#050505" opacity="1.000000" stroke="none" 
	d="
M122.023834,64.194000 
	C139.377975,64.132210 156.732132,64.070419 174.774445,64.314369 
	C176.308395,65.413406 177.154190,66.206703 178.000000,67.000000 
	C159.979111,67.000000 141.958206,67.000000 123.449684,66.698708 
	C122.649315,65.662941 122.336571,64.928467 122.023834,64.194000 
z"/>
<path fill="#050505" opacity="1.000000" stroke="none" 
	d="
M276.998413,64.193405 
	C289.679321,64.141357 302.360199,64.089310 315.362549,64.376312 
	C315.456024,65.476921 315.228027,66.238457 315.000000,67.000000 
	C302.645782,67.000000 290.291534,67.000000 277.466064,66.649185 
	C276.996002,65.596710 276.997223,64.895065 276.998413,64.193405 
z"/>
<path fill="#060606" opacity="1.000000" stroke="none" 
	d="
M21.468658,67.000000 
	C20.997351,66.298302 20.994701,65.596611 20.993767,64.544052 
	C33.677704,64.140793 46.359924,64.088387 59.363953,64.375481 
	C59.457172,65.476646 59.228588,66.238327 59.000000,67.000000 
	C46.645771,67.000000 34.291542,67.000000 21.468658,67.000000 
z"/>
<path fill="#000000" opacity="1.000000" stroke="none" 
	d="
M349.106750,64.019539 
	C353.870453,61.094902 353.076172,56.371704 353.444946,51.459885 
	C354.238922,51.019123 354.619446,51.009563 355.000000,51.000000 
	C355.000000,56.271103 355.000000,61.542206 355.000000,67.000000 
	C347.979980,67.000000 340.958771,67.000000 333.468781,67.000000 
	C333.863464,66.000626 334.660095,64.219643 335.602203,64.139046 
	C339.402191,63.813969 343.247040,64.013611 347.551331,64.357178 
	C348.325592,64.930641 348.623840,65.166389 348.922089,65.402145 
	C348.983643,64.941284 349.045197,64.480408 349.106750,64.019539 
z"/>
<path fill="#060606" opacity="1.000000" stroke="none" 
	d="
M121.558777,64.118317 
	C122.336571,64.928467 122.649315,65.662941 122.981026,66.698708 
	C113.645775,67.000000 104.291542,67.000000 94.443771,66.749039 
	C93.297806,65.731407 92.645393,64.964752 91.992989,64.198090 
	C101.693237,64.146271 111.393478,64.094444 121.558777,64.118317 
z"/>
<path fill="#040404" opacity="1.000000" stroke="none" 
	d="
M276.749207,64.114189 
	C276.997223,64.895065 276.996002,65.596710 276.997375,66.649185 
	C267.312439,67.000000 257.624878,67.000000 247.486771,66.648315 
	C247.028336,65.592468 247.020447,64.888306 247.012558,64.184143 
	C255.708954,64.127373 264.405365,64.070602 273.687073,64.323441 
	C274.849060,64.487343 275.425720,64.341621 276.002411,64.195908 
	C276.168274,64.142265 276.334167,64.088615 276.749207,64.114189 
z"/>
<path fill="#0D0D0D" opacity="1.000000" stroke="none" 
	d="
M246.548889,64.104454 
	C247.020447,64.888306 247.028336,65.592468 247.018112,66.648315 
	C239.645752,67.000000 232.291504,67.000000 224.462891,66.652748 
	C223.989899,65.610909 223.991257,64.916328 223.992615,64.221741 
	C231.356812,64.156082 238.721008,64.090424 246.548889,64.104454 
z"/>
<path fill="#090909" opacity="1.000000" stroke="none" 
	d="
M223.532532,64.129112 
	C223.991257,64.916328 223.989899,65.610909 223.994263,66.652748 
	C216.979050,67.000000 209.958099,67.000000 202.460083,66.649368 
	C201.986145,65.597603 201.989288,64.896461 201.992432,64.195328 
	C209.019104,64.142380 216.045792,64.089432 223.532532,64.129112 
z"/>
<path fill="#171717" opacity="1.000000" stroke="none" 
	d="
M178.466125,67.000000 
	C177.154190,66.206703 176.308395,65.413406 175.238068,64.394073 
	C180.706024,64.122002 186.398499,64.075974 192.554367,64.452927 
	C193.011841,65.583946 193.005920,66.291969 193.000000,67.000000 
	C188.310745,67.000000 183.621490,67.000000 178.466125,67.000000 
z"/>
<path fill="#000000" opacity="1.000000" stroke="none" 
	d="
M91.534187,64.109528 
	C92.645393,64.964752 93.297806,65.731407 93.975113,66.749039 
	C88.645073,67.000000 83.290138,67.000000 77.467606,67.000000 
	C77.863480,66.000626 78.660187,64.219528 79.602165,64.139061 
	C83.402206,63.814453 87.247070,64.014603 91.534187,64.109528 
z"/>
<path fill="#0D0D0D" opacity="1.000000" stroke="none" 
	d="
M315.466125,67.000000 
	C315.228027,66.238457 315.456024,65.476921 315.824463,64.445526 
	C320.661041,64.733711 325.843872,61.882763 330.003113,66.590073 
	C325.310760,67.000000 320.621490,67.000000 315.466125,67.000000 
z"/>
<path fill="#0D0D0D" opacity="1.000000" stroke="none" 
	d="
M59.466118,67.000000 
	C59.228588,66.238327 59.457172,65.476646 59.825867,64.444931 
	C64.661591,64.734581 69.844490,61.882442 74.003120,66.590073 
	C69.310745,67.000000 64.621490,67.000000 59.466118,67.000000 
z"/>
<path fill="#030303" opacity="1.000000" stroke="none" 
	d="
M354.067413,9.017647 
	C352.181641,6.538909 350.295898,4.060167 348.705078,1.290712 
	C350.927490,1.000000 352.854980,1.000000 355.000000,1.000000 
	C355.000000,3.334748 355.000000,5.672641 354.735413,8.474951 
	C354.293274,8.942113 354.115723,8.944858 353.973511,8.959591 
	C354.008789,8.971581 354.067413,9.017643 354.067413,9.017647 
z"/>
<path fill="#020202" opacity="1.000000" stroke="none" 
	d="
M193.448563,67.000000 
	C193.005920,66.291969 193.011841,65.583946 193.019165,64.522049 
	C195.717606,64.117508 198.414627,64.066841 201.552048,64.105743 
	C201.989288,64.896461 201.986145,65.597603 201.991501,66.649368 
	C199.299042,67.000000 196.598083,67.000000 193.448563,67.000000 
z"/>
<path fill="#111111" opacity="1.000000" stroke="none" 
	d="
M354.935364,23.074131 
	C354.288361,20.361324 353.641327,17.648518 353.320740,14.453650 
	C353.647186,13.971587 354.026855,14.045868 354.238586,14.147085 
	C354.710693,14.442466 354.893921,14.693031 355.000000,15.000000 
	C355.000000,17.370558 355.000000,19.741116 354.995483,22.579762 
	C354.990997,23.047852 354.935364,23.074131 354.935364,23.074131 
z"/>
<path fill="#000000" opacity="1.000000" stroke="none" 
	d="
M354.534271,23.395176 
	C354.935364,23.074131 354.990997,23.047852 354.995483,23.023926 
	C355.000000,25.041666 355.000000,27.083334 354.796417,29.412895 
	C354.151611,29.457123 353.710388,29.213453 353.269165,28.969788 
	C353.557190,27.218599 353.845184,25.467409 354.534271,23.395176 
z"/>
<path fill="#000000" opacity="1.000000" stroke="none" 
	d="
M353.287292,47.963509 
	C353.237335,46.620876 353.187408,45.278240 353.429810,43.543831 
	C353.722168,43.152054 354.108765,42.940075 354.331543,42.955593 
	C354.554321,42.971111 355.000000,43.000000 355.000000,43.000000 
	C355.000000,44.388889 355.000000,45.777779 354.714478,47.582481 
	C354.048401,47.986698 353.667847,47.975101 353.287292,47.963509 
z"/>
<path fill="#1A1A1A" opacity="1.000000" stroke="none" 
	d="
M353.183838,29.407610 
	C353.710388,29.213453 354.151611,29.457123 354.796417,29.850395 
	C355.000000,30.750000 355.000000,31.500000 354.666229,32.729099 
	C354.255493,34.124321 354.178528,35.040447 353.878540,35.979019 
	C353.655518,36.001465 353.207458,36.017117 353.207458,36.017117 
	C353.171112,33.959888 353.134796,31.902662 353.183838,29.407610 
z"/>
<path fill="#000000" opacity="1.000000" stroke="none" 
	d="
M354.026855,14.045868 
	C354.026855,14.045868 353.647186,13.971587 353.453796,13.970995 
	C353.275146,12.392946 353.289886,10.815491 353.686035,9.127838 
	C354.067413,9.017643 354.008789,8.971581 353.999237,9.257550 
	C354.326447,9.695683 354.663239,9.847845 355.000000,10.000004 
	C355.000000,10.750000 355.000000,11.500000 354.753784,12.662107 
	C354.269989,13.324106 354.128448,13.619965 354.063782,13.979361 
	C354.044586,13.996929 354.026855,14.045868 354.026855,14.045868 
z"/>
<path fill="#0F0F0F" opacity="1.000000" stroke="none" 
	d="
M353.270935,48.347565 
	C353.667847,47.975101 354.048401,47.986698 354.714478,47.999146 
	C355.000000,48.750000 355.000000,49.500000 355.000000,50.625000 
	C354.619446,51.009563 354.238922,51.019123 353.572693,51.032982 
	C353.276184,50.268723 353.265381,49.500175 353.270935,48.347565 
z"/>
<path fill="#0B0B0B" opacity="1.000000" stroke="none" 
	d="
M353.104492,36.337250 
	C353.207458,36.017117 353.655518,36.001465 354.103699,35.978291 
	C354.551910,35.955116 355.000000,36.000000 355.000000,36.000000 
	C355.000000,36.750000 355.000000,37.500000 354.758453,38.644516 
	C354.516907,39.039032 354.053284,39.180199 353.987396,38.928265 
	C353.670471,38.443535 353.419403,38.210739 353.168365,37.977940 
	C353.112762,37.537758 353.057159,37.097572 353.104492,36.337250 
z"/>
<path fill="#FFFFFF" opacity="1.000000" stroke="none" 
	d="
M354.053284,39.180199 
	C354.053284,39.180199 354.516907,39.039032 354.758453,39.019516 
	C355.000000,40.066788 355.000000,41.133575 355.000000,42.600182 
	C355.000000,43.000000 354.554321,42.971111 354.299255,42.579216 
	C354.047211,41.184948 354.050262,40.182575 354.053284,39.180199 
z"/>
<path fill="#FFFFFF" opacity="1.000000" stroke="none" 
	d="
M355.000000,35.625000 
	C355.000000,36.000000 354.551910,35.955116 354.326752,35.955845 
	C354.178528,35.040447 354.255493,34.124321 354.666229,33.104099 
	C355.000000,33.750000 355.000000,34.500000 355.000000,35.625000 
z"/>
<path fill="#000000" opacity="1.000000" stroke="none" 
	d="
M355.000000,14.750000 
	C354.893921,14.693031 354.710693,14.442466 354.238586,14.147085 
	C354.026855,14.045868 354.044586,13.996929 354.288940,14.084755 
	C354.533295,14.172582 355.000000,14.000000 355.000000,14.000000 
	C355.000000,14.000000 355.000000,14.500000 355.000000,14.750000 
z"/>
<path fill="#111111" opacity="1.000000" stroke="none" 
	d="
M355.000000,13.750000 
	C355.000000,14.000000 354.533295,14.172582 354.308136,14.067186 
	C354.128448,13.619965 354.269989,13.324106 354.753784,13.037107 
	C355.000000,13.000000 355.000000,13.500000 355.000000,13.750000 
z"/>
<path fill="#F3EA5F" opacity="1.000000" stroke="none" 
	d="
M355.000000,9.750004 
	C354.663239,9.847845 354.326447,9.695683 353.963928,9.245561 
	C354.115723,8.944858 354.293274,8.942113 354.735413,8.969685 
	C355.000000,9.000000 355.000000,9.500000 355.000000,9.750004 
z"/>
<path fill="#FE51BF" opacity="1.000000" stroke="none" 
	d="
M144.828629,23.119503 
	C144.193481,21.445808 143.545029,20.136490 142.764648,18.560791 
	C148.443924,18.253052 153.940063,17.955236 159.438385,17.656467 
	C157.013840,25.376240 160.831985,43.688038 166.052994,48.858097 
	C162.511490,49.148914 159.095490,49.429424 155.743057,49.704716 
	C156.228821,46.833317 156.673584,44.204239 157.110931,41.619030 
	C147.251083,39.247711 142.958267,41.412663 144.227188,47.921852 
	C139.829865,48.268108 135.463684,48.611912 132.177490,48.870674 
	C136.338379,40.512310 140.576859,31.998095 144.828629,23.119503 
M147.445770,36.790554 
	C150.174667,36.790554 152.903564,36.790554 156.152924,36.790554 
	C155.283936,32.402882 154.517944,28.535194 153.456131,23.173853 
	C150.954605,28.365881 149.114014,32.186077 147.445770,36.790554 
z"/>
<path fill="#FE55BC" opacity="1.000000" stroke="none" 
	d="
M189.739624,29.068983 
	C190.111893,35.670254 190.564789,41.779785 190.776062,47.897659 
	C190.810120,48.883930 189.965591,50.476650 189.167755,50.753593 
	C188.368820,51.030918 186.869888,50.251320 186.139297,49.491329 
	C185.433029,48.756622 185.314941,47.456486 184.930603,46.382690 
	C184.374054,46.621227 184.019531,46.687252 183.778625,46.888966 
	C177.540314,52.112488 174.418716,52.752819 170.728714,49.543106 
	C166.693390,46.033009 164.947693,37.726616 167.348663,33.460041 
	C170.167236,28.451372 177.121292,25.839642 182.406464,27.806696 
	C183.163147,28.088318 183.915970,28.380295 185.478516,28.974958 
	C184.948166,23.702137 184.474426,18.992115 183.980652,14.082806 
	C186.718994,14.082806 189.877045,14.082806 191.815430,14.082806 
	C191.104172,19.051132 190.422104,23.815573 189.739624,29.068983 
M180.292786,46.131657 
	C181.581604,44.860855 183.655350,43.766098 183.988434,42.280941 
	C184.596558,39.569489 185.071854,36.140785 183.881897,33.942795 
	C183.014511,32.340626 178.951233,31.096836 177.113205,31.796412 
	C175.436981,32.434391 174.664398,35.839985 173.836212,38.148689 
	C173.414413,39.324520 173.741318,40.770557 173.737671,42.094471 
	C173.726395,46.193363 175.440216,48.029625 180.292786,46.131657 
z"/>
<path fill="#FE50BF" opacity="1.000000" stroke="none" 
	d="
M213.009430,18.303913 
	C212.737656,16.737242 212.503006,15.606528 212.214798,14.217649 
	C215.210205,14.217649 218.151474,14.217649 221.059402,14.217649 
	C215.912079,25.735943 217.862915,37.486176 219.195633,49.581688 
	C215.506134,52.230083 215.130615,52.062832 213.754288,47.113575 
	C210.238358,48.506378 206.758881,50.258522 203.071289,51.143494 
	C201.774628,51.454674 199.659149,49.948334 198.450684,48.739090 
	C194.531952,44.817848 193.619202,36.613361 196.369781,32.510860 
	C199.688751,27.560545 206.427841,26.069185 213.866623,29.056385 
	C213.577713,25.421762 213.312134,22.080816 213.009430,18.303913 
M201.953979,41.306591 
	C201.965530,44.853577 202.729919,47.889793 207.275558,46.807976 
	C212.011047,45.680969 215.333832,38.362881 212.681625,34.373940 
	C211.592514,32.735889 208.892639,31.365448 206.930359,31.371820 
	C205.427826,31.376701 203.485809,33.485027 202.569168,35.122375 
	C201.764648,36.559402 202.113541,38.642139 201.953979,41.306591 
z"/>
<path fill="#323232" opacity="1.000000" stroke="none" 
	d="
M353.987427,38.928265 
	C354.050262,40.182575 354.047211,41.184948 354.076477,42.563698 
	C354.108765,42.940075 353.722168,43.152054 353.502289,43.144157 
	C353.189331,41.701122 353.096283,40.265980 353.085815,38.404388 
	C353.419403,38.210739 353.670471,38.443535 353.987427,38.928265 
z"/>
<path fill="#060606" opacity="1.000000" stroke="none" 
	d="
M19.676056,64.134979 
	C19.426378,64.341827 18.848564,64.487862 18.147705,64.416168 
	C18.465746,64.157005 18.906834,64.115585 19.676056,64.134979 
z"/>
<path fill="#050505" opacity="1.000000" stroke="none" 
	d="
M275.674805,64.135635 
	C275.425720,64.341621 274.849060,64.487343 274.149323,64.415794 
	C274.466583,64.157478 274.906921,64.116425 275.674805,64.135635 
z"/>
<path fill="#070707" opacity="1.000000" stroke="none" 
	d="
M348.823181,64.051056 
	C349.045197,64.480408 348.983643,64.941284 348.922089,65.402145 
	C348.623840,65.166389 348.325592,64.930641 348.007141,64.459946 
	C348.171173,64.177521 348.355377,64.130051 348.823181,64.051056 
z"/>
<path fill="#F4DF66" opacity="1.000000" stroke="none" 
	d="
M147.359589,36.398415 
	C149.114014,32.186077 150.954605,28.365881 153.456131,23.173853 
	C154.517944,28.535194 155.283936,32.402882 156.152924,36.790554 
	C152.903564,36.790554 150.174667,36.790554 147.359589,36.398415 
z"/>
<path fill="#F3E761" opacity="1.000000" stroke="none" 
	d="
M179.969009,46.360474 
	C175.440216,48.029625 173.726395,46.193363 173.737671,42.094471 
	C173.741318,40.770557 173.414413,39.324520 173.836212,38.148689 
	C174.664398,35.839985 175.436981,32.434391 177.113205,31.796412 
	C178.951233,31.096836 183.014511,32.340626 183.881897,33.942795 
	C185.071854,36.140785 184.596558,39.569489 183.988434,42.280941 
	C183.655350,43.766098 181.581604,44.860855 179.969009,46.360474 
z"/>
<path fill="#F3E562" opacity="1.000000" stroke="none" 
	d="
M201.953491,40.873131 
	C202.113541,38.642139 201.764648,36.559402 202.569168,35.122375 
	C203.485809,33.485027 205.427826,31.376701 206.930359,31.371820 
	C208.892639,31.365448 211.592514,32.735889 212.681625,34.373940 
	C215.333832,38.362881 212.011047,45.680969 207.275558,46.807976 
	C202.729919,47.889793 201.965530,44.853577 201.953491,40.873131 
z"/>
</svg>